# WaveFront *.obj file (generated by Cinema 4D)

v 0 5.58106374740601 0
v 717.4495849609375 2689.912841796875 20.75397682189941
v 242.08827209472656 5.58106374740601 0
v 334.710205078125 376.88037109375 -62.42022323608398
v 74.80939483642578 5.58106374740601 -230.23963928222656
v 135.67008972167969 425.12393188476562 -209.50656127929688
v -195.85353088378906 5.58106374740601 -142.29591369628906
v -61.78763580322266 472.98394775390625 -60.17919540405273
v -195.85353088378906 5.58106374740601 142.29591369628906
v 15.21688842773438 454.31951904296875 179.196533203125
v 74.80939483642578 5.58106374740601 230.23963928222656
v 260.26602172851562 394.92422485351562 177.81150817871094
v 370.41390991210938 856.4708251953125 -116.99658966064453
v 162.45315551757812 898.39447021484375 -171.83229064941406
v 50.97695922851562 939.98486328125 12.16642665863037
v 221.88372802734375 927.68865966796875 214.43107604980469
v 387.46453857421875 872.15093994140625 100.8924560546875
v 270.8739013671875 1217.9254150390625 -197.67098999023438
v 97.91220092773438 1255.0478515625 -117.97563171386719
v 125.41407012939453 1291.8753662109375 70.52521514892578
v 315.37286376953125 1277.513427734375 107.32978057861328
v 437.11404418945312 1235.7330322265625 -24.71311187744141
v 271.24542236328125 1483.53759765625 -243.24201965332031
v 128.73077392578125 1499.5281982421875 -134.69032287597656
v 188.47239685058594 1541.8067626953125 29.60532188415527
v 367.90939331054688 1551.9456787109375 22.59391021728516
v 419.06591796875 1515.933349609375 -146.03501892089844
v 224.300048828125 1679.1549072265625 -273.50753784179688
v 122.85314178466797 1694.1060791015625 -140.21907043457031
v 217.56687927246094 1733.6365966796875 -6.9994068145752
v 377.55007934570312 1743.116455078125 -57.95357894897461
v 381.71142578125 1709.4449462890625 -222.66465759277344
v 205.8111572265625 1843.5823974609375 -298.27127075195312
v 111.16118621826172 1857.5318603515625 -173.91314697265625
v 199.52909851074219 1894.413818359375 -49.61920166015625
v 348.4208984375 1902.960205078125 -98.37209320068359
v 352.22964477539062 1872.1414794921875 -249.127685546875
v 372.46221923828125 2187.926025390625 -328.1422119140625
v 337.21136474609375 2213.46435546875 -242.51718139648438
v 375.0924072265625 2222.899169921875 -156.93632507324219
v 433.58111572265625 2203.05712890625 -190.50444030761719
v 431.9864501953125 2181.85302734375 -294.30508422851562
v 760.51239013671875 2398.241943359375 -203.08445739746094
v 737.3525390625 2415.0205078125 -146.82881164550781
v 762.24041748046875 2421.21923828125 -90.60218048095703
v 800.66748046875 2408.182861328125 -112.65643310546875
v 799.61981201171875 2394.251953125 -180.85346984863281
v 705.4114990234375 2680.861572265625 -35.59220504760742
v 682.25164794921875 2697.64013671875 20.6634521484375
v 707.1395263671875 2703.8388671875 76.89007568359375
v 745.56658935546875 2690.802490234375 54.83581924438477
v 744.5189208984375 2676.87158203125 -13.3612117767334
v 269.69131469726562 2116.511474609375 -194.88539123535156
v 291.61065673828125 2115.156494140625 -143.61468505859375
v 331.78500366210938 2214.08154296875 -216.746337890625
v 346.0211181640625 2215.86865234375 -169.3316650390625
v 276.5035400390625 2123.329833984375 -188.80064392089844
v 292.734375 2121.847900390625 -152.94664001464844
v 330.47540283203125 2207.325927734375 -207.80628967285156
v 339.38885498046875 2209.112548828125 -175.03707885742188
v 187.15385437011719 2216.701904296875 -160.49739074707031
v 200.3482666015625 2207.5908203125 -124.52591705322266
v 229.78462219238281 2250.494384765625 -166.34861755371094
v 237.24830627441406 2247.036865234375 -133.35162353515625
v 78.92099761962891 2395.236328125 -99.21331787109375
v 58.51454162597656 2381.575439453125 -86.08895111083984
v 102.11669158935547 2387.85498046875 -69.15012359619141
v 83.28794860839844 2380.040771484375 -56.40362930297852
v -56.76858901977539 2434.731689453125 18.35567855834961
v -79.78379821777344 2424.7705078125 6.25749206542969
v -62.50302886962891 2410.158447265625 47.67453384399414
v -84.38079833984375 2404.95068359375 39.1716423034668
v -118.17739105224609 2519.79638671875 93.73535919189453
v -123.13531494140625 2525.1416015625 76.53318023681641
v -139.05854797363281 2504.393310546875 94.39012145996094
v -144.64344787597656 2511.2705078125 80.90762329101562
# 76 vertices

vn 0 1 0
vn 0 0 0
vn -0.52988636493683 0.26747658848763 0.80478364229202
vn -0.2106411755085 -0.95714509487152 0.1987551599741
vn 0.57927107810974 -0.12384644150734 0.80567181110382
vn -0.21064102649689 -0.95714443922043 0.1987579613924
vn 0 1 0
vn 0.9257607460022 -0.21033518016338 -0.31420710682869
vn -0.21063880622387 -0.95714497566223 0.19875845313072
vn -0.21063746511936 -0.95714545249939 0.19875738024712
vn 0 1 0
vn 0.01277997903526 0.07597624510527 -0.99702775478363
vn -0.21063612401485 -0.95714598894119 0.19875629246235
vn -0.87631058692932 0.37703436613083 -0.299874573946
vn -0.21063816547394 -0.95714581012726 0.19875463843346
vn -0.5987144112587 -0.02983354218304 0.80040681362152
vn 0.54314243793488 -0.25507590174675 0.79995787143707
vn 0.87929207086563 -0.36073976755142 -0.31098586320877
vn -0.04150473698974 -0.14819653332233 -0.98808664083481
vn -0.95374226570129 0.03705282136798 -0.29833334684372
vn -0.28644105792046 -0.19353096187115 0.93834811449051
vn 0 0 0
vn 0.79903048276901 -0.25901657342911 0.54264229536057
vn 0 0 0
vn 0.6971920132637 -0.3736338019371 -0.61181777715683
vn 0 0 0
vn -0.59751671552658 -0.18772189319134 -0.77957314252853
vn 0 0 0
vn -0.96504539251328 -0.24497133493423 0.09314747154713
vn 0.42007267475128 0.00908711645752 0.9074450135231
vn 0 0 0
vn 0.96207749843597 -0.25747981667519 -0.09006106108427
vn 0 0 0
vn 0.15701672434807 -0.31868433952332 -0.93476521968842
vn 0 0 0
vn -0.74638259410858 -0.30433827638626 -0.59185409545898
vn 0 0 0
vn -0.72197496891022 0.11798369884491 0.68178582191467
vn 0 0 0
vn 0.60832720994949 0.04089768975973 0.79263204336166
vn 0 0 0
vn 0.93653386831284 -0.19733487069607 -0.28976434469223
vn 0 0 0
vn -0.0141120897606 -0.38763710856438 -0.92170405387878
vn 0 0 0
vn -0.93584913015366 -0.27022448182106 -0.2261970937252
vn 0 0 0
vn -0.54906767606735 -0.00245910324156 0.8357743024826
vn 0 0 0
vn 0.79264116287231 0.17699602246284 0.58343154191971
vn 0 0 0
vn 0.82169854640961 -0.05810396373272 -0.56695282459259
vn 0 0 0
vn -0.27586498856544 -0.28258222341537 -0.91871964931488
vn 0 0 0
vn -0.98423224687576 -0.1765249222517 0.01122043095529
vn 0 0 0
vn -0.32392379641533 0.10517905652523 0.94021844863892
vn 0 0 0
vn 0.72694540023804 -0.34752175211906 0.59226608276367
vn 0 0 0
vn 0.44541761279106 -0.81056696176529 -0.38024261593819
vn 0 0 0
vn -0.29412961006165 -0.2032498717308 -0.93390434980392
vn 0 0 0
vn -0.96833151578903 0.23867845535278 -0.07325698435307
vn 0 0 0
vn -0.35141694545746 0.24837869405746 0.9026705622673
vn 0 0 0
vn 0.33669409155846 -0.85534578561783 0.39372661709785
vn 0 0 0
vn 0.46806338429451 -0.87675607204437 -0.11052343249321
vn 0 0 0
vn -0.20405781269073 0.64474636316299 -0.73665624856949
vn 0 0 0
vn -0.45253503322601 0.87504124641418 -0.17179882526398
vn 0 0 0
vn -0.44330391287804 0.32007056474686 0.83727914094925
vn 0 0 0
vn 0.91748064756393 -0.05463107675314 0.39401105046272
vn 0 0 0
vn 0.82034611701965 0.4013583958149 -0.40736189484596
vn 0 0 0
vn -0.33454608917236 0.43133369088173 -0.83787244558334
vn 0 0 0
vn -0.97227293252945 -0.22573935985565 0.06104919314384
vn 0 0 0
vn -0.46226587891579 -0.51705849170685 0.72038930654526
vn 0 0 0
vn 0.43968567252159 -0.48248925805092 -0.75754910707474
vn 0 0 0
vn 0.77146029472351 -0.49306020140648 -0.4021700322628
vn 0 0 0
vn 0.84611648321152 -0.50386077165604 0.17381390929222
vn 0 0 0
vn 0.13080224394798 -0.99008280038834 0.05125353485346
vn 0 0 0
vn 0 0 0
vn 0 0 0
vn 0 0 0
vn 0 0 0
vn 0.79702311754227 -0.51227951049805 -0.31988111138344
vn 0 0 0
vn 0.73909264802933 -0.58640098571777 -0.33147555589676
vn 0 0 0
vn 0.7884812951088 -0.55918174982071 -0.25615030527115
vn 0 0 0
vn 0.84668737649918 -0.47676900029182 -0.23624542355537
vn 0 0 0
vn -0.38626629114151 -0.02688641473651 -0.92199540138245
vn 0 0 0
vn 0.6168030500412 0.74691104888916 -0.24835039675236
vn 0 0 0
vn 0.31418910622597 0.01290738675743 0.94927269220352
vn 0 0 0
vn -0.3396398127079 -0.92961090803146 0.14306801557541
vn 0 0 0
vn -0.35511592030525 0.12491255253553 -0.92643916606903
vn 0.75735253095627 0.64280289411545 -0.11498522758484
vn 0.2627489566803 -0.16692106425762 0.95031589269638
vn 0 0 0
vn -0.69959837198257 -0.70959460735321 0.08389092981815
vn 0.11963434517384 0.9916290640831 -0.04857381060719
vn 0 0 0
vn 0.55067080259323 -0.02089715190232 0.83446091413498
vn 0 0 0
vn -0.28903850913048 -0.95724207162857 -0.01201759465039
vn 0 0 0
vn -0.57367312908173 0.04855872690678 -0.81764364242554
vn 0.86946278810501 0.36003997921944 0.33823904395103
vn 0 -0.00000314704266 0
vn -0.14622166752815 -0.60898810625076 0.7795849442482
vn 0 -0.00000314704994 0
vn -0.87364935874939 -0.27501541376114 -0.40137675404549
vn 0 -0.00000315167017 0
vn 0.1843288987875 0.55266344547272 -0.81276434659958
vn 0 -0.00000313906821 0
vn -0.80588060617447 0.08796977996826 0.58550643920898
vn 0 -0.00000313065721 0
vn 0.29938295483589 -0.24775172770023 0.92140591144562
vn 0 -0.00000296520193 0
vn 0.90489679574966 -0.42563089728355 0
vn 0 -0.00000296747203 0
vn 0.29793590307236 -0.26539131999016 -0.91695237159729
vn 0 -0.00000297870611 0
vn -0.80475962162018 0.10245588421822 -0.58469200134277
vn 0 -0.00000297871338 0
vn -0.22891490161419 0.12687306106091 0.96514308452606
vn 0 -0.00000296767575 0
vn 0.84266942739487 -0.08994691818953 0.53086513280869
vn 0 -0.00000296768303 0
vn 0.7586949467659 -0.08310414105654 -0.64612358808517
vn 0 -0.00000297326733 0
vn -0.48053500056267 0.27185615897179 -0.83377480506897
vn 0 -0.00000297865154 0
vn -0.9624474644661 0.26558643579483 0.05620250478387
vn 0 -0.00000295367681 0
vn 0.45198139548302 0.31106713414192 0.83603239059448
vn 0 -0.00000295368409 0
vn 0.96286123991013 0.20139674842358 -0.17982637882233
vn 0 -0.00000297908446 0
vn 0.19755391776562 0.11957170814276 -0.97297233343124
vn 0 -0.00000297882252 0
vn -0.73675644397736 -0.0100925732404 -0.67608278989792
vn 0 -0.0000029788298 0
vn -0.69993376731873 0.31672701239586 0.64013814926147
vn 0 -0.00000297698898 0
vn 0.6099499464035 0.1331719905138 0.78116983175278
vn 0 -0.00000297699626 0
vn 0.94158858060837 -0.13964556157589 -0.30644768476486
vn 0 -0.00000297533006 0
vn -0.02987941354513 -0.1541548371315 -0.98759490251541
vn 0 -0.00000297847328 0
vn -0.94800049066544 0.08694972842932 -0.30616140365601
vn 0 -0.0000029748935 0
vn -0.56927585601807 0.2955162525177 0.76719951629639
vn 0 -0.00000297038241 0
vn 0.77981168031692 0.27421310544014 0.56276196241379
vn 0 -0.00000297614497 0
vn 0.81385409832001 0.00807523354888 -0.58101314306259
vn 0 -0.00000297873521 0
vn -0.2933235168457 -0.13607989251614 -0.9462788105011
vn 0 -0.00000297874249 0
vn -0.99879485368729 0.03658562153578 -0.03271318972111
vn 0 -0.00000297623228 0
vn -0.34403708577156 0.28754633665085 0.89384317398071
vn 0 -0.00000297745464 0
vn 0.79264116287231 0.17699594795704 0.583431661129
vn 0 -0.00000297917177 0
vn 0.82169854640961 -0.05810398608446 -0.56695276498795
vn 0 -0.00000297917904 0
vn -0.28484082221985 -0.27535220980644 -0.91817581653595
vn 0 -0.00000297364204 0
vn -0.98423224687576 -0.17652462422848 0.01122063212097
vn 0 -0.00000297850238 0
vn -0.33296871185303 0.09229852259159 0.93840974569321
vn 0 -0.00000296942198 0
vn 0.82069236040115 -0.35860079526901 0.44482520222664
vn 0 -0.0000029779203 0
vn 0.48519787192345 -0.68106877803802 -0.54838699102402
vn 0 -0.00000297792758 0
vn -0.50144255161285 -0.01461751107126 -0.86506742238998
vn 0 -0.00000297751285 0
vn -0.9643502831459 0.26178947091103 -0.03866251930594
vn 0 -0.00000297754195 0
vn -0.46049958467484 0.24311882257462 0.85371738672256
vn 0 -0.00000297728002 0
vn 0.33669477701187 -0.85534608364105 0.3937254846096
vn 0 -0.00000297661427 0
vn 0.46806326508522 -0.87675625085831 -0.11052279174328
vn 0 -0.00000297611587 0
vn -0.2040569037199 0.6447446346283 -0.73665803670883
vn 0 -0.00000297612314 0
vn -0.45253530144691 0.87504154443741 -0.17179657518864
vn 0 -0.0000029760613 0
vn -0.44330376386642 0.32007023692131 0.83727937936783
vn 0 -0.00000297684346 0
vn 0.91748064756393 -0.05463095381856 0.39401093125343
vn 0 -0.00000297669794 0
vn 0.82034605741501 0.40135842561722 -0.40736192464828
vn 0 -0.00000297670522 0
vn -0.33454608917236 0.43133360147476 -0.8378723859787
vn 0 -0.00000297588667 0
vn -0.97227293252945 -0.22573935985565 0.06104919686913
vn 0 -0.00000297518454 0
vn -0.46226590871811 -0.51705849170685 0.72038924694061
vn 0 -0.00000297503902 0
vn 0.69898194074631 -0.50653678178787 -0.50482147932053
vn 0 -0.00000297719271 0
vn 0.78620773553848 -0.5095739364624 -0.34958791732788
vn 0 -0.00000297667248 0
vn 0.84699159860611 -0.49640390276909 0.19023267924786
vn 0 -0.00000297765837 0
vn 0.25045910477638 -0.9673518538475 -0.03873907774687
vn 0 -0.00000297591214 0
vn 0 -0.00000297591941 0
vn 0 -0.00000297800761 0
vn 0 -0.00000297567931 0
vn 0 -0.00000297404949 0
vn 0.82127380371094 -0.50586688518524 -0.26383310556412
vn 0 -0.00000297524275 0
vn 0.80157035589218 -0.46005710959435 -0.38188010454178
vn 0 -0.00000297535917 0
vn 0.76524782180786 -0.56252908706665 -0.3129805624485
vn 0 -0.00000297579572 0
vn 0.77294307947159 -0.60927855968475 -0.1770271807909
vn 0 -0.000002975803 0
vn -0.26574546098709 0.03302355855703 -0.96347743272781
vn 0 -0.00000297288534 0
vn 0.70758199691772 0.70188474655151 -0.08176469802856
vn 0 -0.00000297289262 0
vn 0.2941045165062 -0.20955945551395 0.93251663446426
vn 0 -0.00000297320912 0
vn -0.35439857840538 -0.93492501974106 -0.01780169457197
vn 0 -0.00000297515908 0
vn 0.62131065130234 0.61403357982636 -0.48676058650017
vn 0 -0.00000297460247 0
vn 0.52730804681778 0.02816927246749 0.84920710325241
vn 0 -0.00000297480619 0
vn -0.59821361303329 -0.75196331739426 0.27693259716034
vn 0 -0.00000297227416 0
vn -0.52300173044205 -0.11696515977383 -0.84426784515381
vn 0 -0.00000297189945 0
vn 0.54010957479477 0.68550598621368 0.48822438716888
vn nan nan nan
vn 0.1400925219059 -0.87847274541855 0.45679298043251
vn 0 -0.00000297498082 0
vn -0.51349741220474 -0.60555160045624 -0.60797011852264
vn 0 -0.00000297376209 0
vn -0.07519273459911 0.92480212450027 -0.37294387817383
vn 0 -0.00019972678274 0
vn 0.41940256953239 -0.39210972189903 0.81874996423721
vn 0 -0.00019990000874 0
vn -0.79311817884445 -0.60777014493942 0.03973669931293
vn 0 -0.00020007323474 0
vn -0.23169814050198 0.27442902326584 -0.93327629566193
vn 0 -0.00020033307374 0
vn 0.85119569301605 0.51729375123978 -0.08873075991869
vn 0 -0.00020050629973 0
# 279 normals

vt 0.5 0.5 0
vt 0 0.5 0
vt 0.34549149870872 0.97552824020386 0
vt 0 1 0
vt 0 0 0
vt 0.20000000298023 1 0
vt 1 0.5 0
vt 0.65450847148895 0.97552824020386 0
vt 0.90450847148895 0.79389262199402 0
vt 0.20000000298023 0 0
vt 0.40000000596046 1 0
vt 0.09549149870872 0.79389262199402 0
vt 0.90450847148895 0.20610737800598 0
vt 0.40000000596046 0 0
vt 0.60000002384186 1 0
vt 0.09549149870872 0.20610737800598 0
vt 0.34549149870872 0.02447175979614 0
vt 0.60000002384186 0 0
vt 0.80000001192093 1 0
vt 0.65450847148895 0.02447175979614 0
vt 0.80000001192093 0 0
vt 1 1 0
vt 0.09549150615931 0.79389262199402 0
vt 0.09549150615931 0.20610737800598 0
vt 0.30268061161041 0.86121243238449 0
vt 0.26424241065979 0.84872317314148 0
vt 0.48458957672119 0.9203183054924 0
vt 0.27114939689636 0.85096728801727 0
vt 0.21650120615959 0.83321106433868 0
vt 0.53219771385193 0.93578708171844 0
vt 0.47829794883728 0.91827398538589 0
vt 0.44682204723358 0.9080468416214 0
vt 1 0 0
# 33 texture coordinates

o Cylinder
usemtl Mat
f 1/1/1 3/2/1 5/3/1
f 3/5/3 4/4/3 6/6/3
f 48/7/4 2/1/4 49/8/4
f 1/1/1 5/3/1 7/9/1
f 5/10/5 6/6/5 8/11/5
f 49/8/6 2/1/6 50/12/6
f 1/1/7 7/9/7 9/13/7
f 7/14/8 8/11/8 10/15/8
f 50/12/9 2/1/10 51/16/10
f 1/1/11 9/13/11 11/17/11
f 9/18/12 10/15/12 12/19/12
f 51/16/10 2/1/10 52/20/13
f 1/1/1 11/17/1 3/2/1
f 11/21/14 12/19/14 4/22/14
f 52/20/15 2/1/15 48/7/15
f 14/8/16 6/8/16 4/7/16
f 15/12/17 8/23/17 6/8/17
f 16/16/18 10/24/18 8/23/18
f 17/20/19 12/20/19 10/24/19
f 13/7/20 4/7/20 12/20/20
f 19/8/21 14/8/21 13/7/21
f 20/12/23 15/12/23 14/8/23
f 21/16/25 16/16/25 15/12/25
f 22/20/27 17/20/27 16/16/27
f 18/7/29 13/7/29 17/20/29
f 24/8/30 19/8/30 18/7/30
f 25/12/32 20/12/32 19/8/32
f 26/16/34 21/16/34 20/12/34
f 27/20/36 22/20/36 21/16/36
f 23/7/38 18/7/38 22/20/38
f 29/8/40 24/8/40 23/7/40
f 30/12/42 25/12/42 24/8/42
f 31/16/44 26/16/44 25/12/44
f 32/20/46 27/20/46 26/16/46
f 28/7/48 23/7/48 27/20/48
f 34/8/50 29/8/50 28/7/50
f 35/12/52 30/12/52 29/8/52
f 36/16/54 31/16/54 30/12/54
f 37/20/56 32/20/56 31/16/56
f 33/7/58 28/7/58 32/20/58
f 39/8/60 34/8/60 33/7/60
f 76/25/62 74/26/62 73/27/62
f 41/16/64 36/16/64 35/12/64
f 42/20/66 37/20/66 36/16/66
f 38/7/68 33/7/68 37/20/68
f 44/8/70 39/8/70 38/7/70
f 45/12/72 40/12/72 39/8/72
f 46/16/74 41/16/74 40/12/74
f 47/20/76 42/20/76 41/16/76
f 43/7/78 38/7/78 42/20/78
f 49/8/80 44/8/80 43/7/80
f 50/12/82 45/12/82 44/8/82
f 51/16/84 46/16/84 45/12/84
f 52/20/86 47/20/86 46/16/86
f 48/7/88 43/7/88 47/20/88
f 56/28/90 40/12/90 35/12/90
f 54/29/92 35/12/92 34/8/92
f 53/30/94 34/8/94 39/8/94
f 55/31/96 39/8/96 40/12/96
f 56/28/2 56/28/2 54/29/2
f 54/29/2 54/29/2 53/30/2
f 53/30/2 53/30/2 55/31/2
f 55/31/2 55/31/2 56/28/2
f 60/25/102 56/28/102 54/29/102
f 58/26/104 54/29/104 53/30/104
f 57/27/106 53/30/106 55/31/106
f 59/32/108 55/31/108 56/28/108
f 64/25/110 60/25/110 58/26/110
f 62/26/112 58/26/112 57/27/112
f 61/27/114 57/27/114 59/32/114
f 63/32/116 59/32/116 60/25/116
f 68/25/118 64/25/118 62/26/118
f 66/26/119 62/26/119 61/27/119
f 65/27/120 61/27/120 63/32/120
f 67/32/122 63/32/122 64/25/122
f 72/25/123 68/25/123 66/26/123
f 70/26/125 66/26/125 65/27/125
f 69/27/127 65/27/127 67/32/127
f 71/32/129 67/32/129 68/25/129
f 76/25/130 72/25/130 70/26/130
f 74/26/132 70/26/132 69/27/132
f 73/27/134 69/27/134 71/32/134
f 75/32/136 71/32/136 72/25/136
f 3/5/138 6/6/138 5/10/138
f 5/10/140 8/11/140 7/14/140
f 7/14/142 10/15/142 9/18/142
f 9/18/144 12/19/144 11/21/144
f 11/21/146 4/22/146 3/33/146
f 14/8/148 4/7/148 13/7/148
f 15/12/150 6/8/150 14/8/150
f 16/16/152 8/23/152 15/12/152
f 17/20/154 10/24/154 16/16/154
f 13/7/156 12/20/156 17/20/156
f 19/8/158 13/7/158 18/7/158
f 20/12/160 14/8/160 19/8/160
f 21/16/162 15/12/162 20/12/162
f 22/20/164 16/16/164 21/16/164
f 18/7/166 17/20/166 22/20/166
f 24/8/168 18/7/168 23/7/168
f 25/12/170 19/8/170 24/8/170
f 26/16/172 20/12/172 25/12/172
f 27/20/174 21/16/174 26/16/174
f 23/7/176 22/20/176 27/20/176
f 29/8/178 23/7/178 28/7/178
f 30/12/180 24/8/180 29/8/180
f 31/16/182 25/12/182 30/12/182
f 32/20/184 26/16/184 31/16/184
f 28/7/186 27/20/186 32/20/186
f 34/8/188 28/7/188 33/7/188
f 35/12/190 29/8/190 34/8/190
f 36/16/192 30/12/192 35/12/192
f 37/20/194 31/16/194 36/16/194
f 33/7/196 32/20/196 37/20/196
f 39/8/198 33/7/198 38/7/198
f 76/25/200 73/27/200 75/32/200
f 41/16/202 35/12/202 40/12/202
f 42/20/204 36/16/204 41/16/204
f 38/7/206 37/20/206 42/20/206
f 44/8/208 38/7/208 43/7/208
f 45/12/210 39/8/210 44/8/210
f 46/16/212 40/12/212 45/12/212
f 47/20/214 41/16/214 46/16/214
f 43/7/216 42/20/216 47/20/216
f 49/8/218 43/7/218 48/7/218
f 50/12/220 44/8/220 49/8/220
f 51/16/222 45/12/222 50/12/222
f 52/20/224 46/16/224 51/16/224
f 48/7/226 47/20/226 52/20/226
f 56/28/228 35/12/228 54/29/228
f 54/29/230 34/8/230 53/30/230
f 53/30/232 39/8/232 55/31/232
f 55/31/234 40/12/234 56/28/234
f 56/28/2 54/29/2 54/29/2
f 54/29/2 53/30/2 53/30/2
f 53/30/2 55/31/2 55/31/2
f 55/31/2 56/28/2 56/28/2
f 60/25/240 54/29/240 58/26/240
f 58/26/242 53/30/242 57/27/242
f 57/27/244 55/31/244 59/32/244
f 59/32/246 56/28/246 60/25/246
f 64/25/248 58/26/248 62/26/248
f 62/26/250 57/27/250 61/27/250
f 61/27/252 59/32/252 63/32/252
f 63/32/254 60/25/254 64/25/254
f 68/25/256 62/26/256 66/26/256
f 66/26/258 61/27/258 65/27/258
f 65/27/260 63/32/260 67/32/260
f 67/32/262 64/25/262 68/25/262
f 72/25/264 66/26/264 70/26/264
f 70/26/266 65/27/266 69/27/266
f 69/27/268 67/32/268 71/32/268
f 71/32/270 68/25/270 72/25/270
f 76/25/272 70/26/272 74/26/272
f 74/26/274 69/27/274 73/27/274
f 73/27/276 71/32/276 75/32/276
f 75/32/278 72/25/278 76/25/278

