# WaveFront *.obj file (generated by Cinema 4D)

v -184.11091613769531 2720.0908203125 224.81842041015625
v -201.85258483886719 2497.379150390625 232.02726745605469
v 232.61064147949219 2667.2685546875 90.36981201171875
v 34.88788986206055 2643.69287109375 -151.02687072753906
v -178.40126037597656 2778.0146484375 -249.89187622070312
v -246.40664672851562 2567.621337890625 -196.81645202636719
v -436.15484619140625 2669.9384765625 -166.10514831542969
v -635.69110107421875 2758.693115234375 -39.72802734375
v -72.423828125 2808.48486328125 17.36900901794434
v -351.33981323242188 2818.36279296875 -46.40071105957031
v -404.90762329101562 2465.41943359375 -18.82436180114746
v -99.55821990966797 2492.7646484375 -14.61355018615723
v -220.33230590820312 2774.64453125 -6.45881462097168
v -62.90232849121094 2795.928466796875 144.51727294921875
v -278.3843994140625 2749.324951171875 120.60785675048828
v 23.27624130249023 2724.873779296875 62.63059997558594
v -89.49720001220703 2720.096923828125 153.23100280761719
v 23.30098724365234 2782.845458984375 -90.71421813964844
v 213.95542907714844 2639.5615234375 -88.9337158203125
v -169.37901306152344 2819.763916015625 -144.42359924316406
v -86.74236297607422 2717.23583984375 -281.51950073242188
v -356.19552612304688 2797.177978515625 -91.05432891845703
v -418.75408935546875 2779.115234375 -119.43922424316406
v -402.08309936523438 2689.676513671875 -232.25027465820312
v -493.9476318359375 2759.994873046875 -62.18585586547852
v -560.17730712890625 2680.46337890625 -81.79092407226562
v -311.25619506835938 2698.60791015625 242.36563110351562
v -232.67279052734375 2498.611572265625 74.21451568603516
v -460.97146606445312 2482.405029296875 121.82132720947266
v -97.96611022949219 2467.47998046875 127.73762512207031
v 102.75045776367188 2568.77392578125 39.9581298828125
v -57.77339172363281 2614.3779296875 183.46781921386719
v 52.23295211791992 2551.554931640625 -79.29639434814453
v -148.37815856933594 2599.740234375 -171.17457580566406
v -139.69667053222656 2543.98583984375 -141.52395629882812
v -336.77191162109375 2493.1611328125 -134.76414489746094
v -320.81378173828125 2595.538818359375 -230.54925537109375
v -427.00616455078125 2504.540283203125 -90.71421813964844
v -595.68310546875 2572.33203125 19.68269538879395
v -363.37539672851562 2588.6826171875 156.93910217285156
v -180.8753662109375 2613.25244140625 305.1256103515625
v -232.99977111816406 2604.314697265625 -249.39402770996094
# 42 vertices

vn -0.22315137088299 -0.93140852451324 -0.28754413127899
vn 0 0 0
vn 0.23888079822063 -0.96443629264832 -0.11313050985336
vn 0.22030505537987 -0.97100323438644 -0.09283491224051
vn 0.23618146777153 -0.85881978273392 -0.454584389925
vn -0.65065240859985 -0.75892281532288 -0.02622252702713
vn 0 -1757.943359375 0
vn -0.21301224827766 -0.92524367570877 -0.3139266371727
vn -0.62430316209793 0.13044475018978 -0.7702140212059
vn -0.59908604621887 0.11912345141172 -0.79177367687225
vn -0.54493457078934 -0.78427410125732 -0.29658108949661
vn 0 -1757.966796875 0
vn -0.3085190653801 -0.39979177713394 0.86312371492386
vn -0.57326877117157 -0.76639628410339 -0.28982692956924
vn -0.28272667527199 -0.94307464361191 0.17514503002167
vn -0.2021371871233 -0.97792434692383 0.05295784398913
vn 0 -1757.990234375 0
vn -0.42400535941124 -0.82908755540848 0.36446297168732
vn -0.28840914368629 -0.84202325344086 0.45586964488029
vn -0.77628552913666 -0.3039952814579 0.55223876237869
vn 0.25070139765739 -0.94365483522415 -0.21601934731007
vn 0 -1758.013671875 0
vn -0.40079784393311 -0.81009382009506 0.42791256308556
vn 0.02927541732788 -0.95320045948029 -0.30091837048531
vn 0.20904424786568 -0.91524785757065 0.34441521763802
vn 0.35316881537437 -0.79613298177719 0.49136957526207
vn 0 -1758.037109375 0
vn 0.06987948715687 -0.90419137477875 0.42137259244919
vn -0.05231422558427 -0.78628242015839 0.61564856767654
vn 0.88207525014877 -0.29692432284355 0.36575847864151
vn 0.48950415849686 -0.40753185749054 0.77091079950333
vn 0 -1758.060546875 0
vn 0.3581560254097 -0.91925430297852 0.16338858008385
vn 0.57197493314743 -0.61117333173752 0.54709386825562
vn 0.14960941672325 -0.35232082009315 0.92384368181229
vn 0.37616562843323 -0.78668218851089 -0.48952069878578
vn 0 -1758.083984375 0
vn 0.1074241027236 -0.92773807048798 -0.35743844509125
vn 0.22718012332916 -0.91923129558563 -0.32156360149384
vn -0.02041125483811 -0.98238128423691 -0.18576972186565
vn 0.15684692561626 0.97270315885544 0.17101901769638
vn 0 -1758.107421875 0
vn -0.10298112779856 0.98179244995117 -0.15961986780167
vn 0.02950933203101 0.89453017711639 0.44603243470192
vn 0.0437521673739 0.9710556268692 -0.23481237888336
vn -0.32493579387665 0.73378401994705 -0.59663867950439
vn 0 -1758.130859375 0
vn -0.38567051291466 0.90766543149948 0.16553463041782
vn -0.53384691476822 0.42368733882904 -0.73177635669708
vn -0.5784924030304 0.4228982925415 -0.69749814271927
vn -0.58730137348175 0.80686748027802 -0.06357751041651
vn 0 -1758.154296875 0
vn -0.2592778801918 0.56243181228638 0.78514045476913
vn -0.47329524159431 0.87781149148941 0.07374700158834
vn -0.35534307360649 0.93460607528687 0.01558071933687
vn -0.22394880652428 0.57210057973862 0.78901708126068
vn 0 -1758.177734375 0
vn -0.351682305336 0.3962707221508 0.848109126091
vn -0.29565879702568 0.41225436329842 0.86176109313965
vn -0.16965368390083 0.89408987760544 0.41451278328896
vn -0.16980257630348 0.74432057142258 0.6458745598793
vn 0 -1758.201171875 0
vn -0.23638139665127 0.96724528074265 0.09252227842808
vn -0.24542009830475 0.96454215049744 0.09709526598454
vn 0.23908366262913 0.92432022094727 0.29744082689285
vn -0.06988578289747 0.68732100725174 0.72298383712769
vn 0 -1758.224609375 0
vn 0.61962807178497 0.35366371273994 0.7007018327713
vn 0.413792937994 0.58674317598343 0.6960660815239
vn 0.29771509766579 0.8739817738533 0.38408535718918
vn 0.54308891296387 0.3729512989521 0.75230431556702
vn 0 -1758.248046875 0
vn 0.70496916770935 0.34830075502396 0.61782288551331
vn 0.60905313491821 0.42714706063271 0.66828113794327
vn 0.51173150539398 0.81086522340775 0.28395128250122
vn 0.51046115159988 -0.15977166593075 -0.84492748975754
vn 0 -1758.271484375 0
vn 0.39356696605682 -0.05826115235686 -0.9174479842186
vn 0.50928008556366 -0.19034947454929 -0.83928591012955
vn 0.50129061937332 0.85994040966034 0.09596938639879
vn 0.55524927377701 0.3695165514946 -0.74508780241013
vn 0 -1758.294921875 0
vn 0.66199952363968 0.23835092782974 -0.71059519052506
vn 0.57176238298416 0.31697502732277 -0.75671303272247
vn -0.00874993484467 -0.60100024938583 -0.79920101165771
vn -0.23278421163559 -0.33136340975761 -0.91433572769165
vn -0.61172783374786 0.49832418560982 -0.61437940597534
vn -0.64761692285538 -0.38277199864388 -0.65884584188461
vn -0.51331639289856 -0.52553170919418 -0.67847090959549
vn 0.27499756217003 -0.08369386941195 0.95779520273209
vn -0.38288778066635 0.80052250623703 0.46104314923286
vn -0.44530084729195 0.72589349746704 0.5242001414299
vn -0.24508927762508 0.72890543937683 0.63924026489258
vn 0.08837996423244 -0.02492614090443 0.9957749247551
vn 0.64911603927612 0.56949609518051 0.50430405139923
vn 0.18907487392426 0.18066948652267 0.96519911289215
vn 0.04291526600718 0.81411969661713 0.57910895347595
# 97 normals

vt 0.69999998807907 0.307000041008 0
vt 0.64999997615814 0.22049999237061 0
vt 0.60000002384186 0.307000041008 0
vt 0 1 0
vt 0.60000002384186 0.1340000629425 0
vt 0.55000001192093 0.22049999237061 0
vt 0.5 0.307000041008 0
vt 0.5 0.1340000629425 0
vt 0.40000000596046 0.1340000629425 0
vt 0.44999998807907 0.22049999237061 0
vt 0.10000000149012 1 0
vt 0.1499999910593 0.91350001096725 0
vt 0.05000000074506 0.91350001096725 0
vt 0.19999998807907 0.82700002193451 0
vt 0.09999999403954 0.82700002193451 0
vt 0 0.82700002193451 0
vt 0.20000000298023 1 0
vt 0.30000001192093 1 0
vt 0.25 0.91350001096725 0
vt 1 0.48000001907349 0
vt 0.89999997615814 0.48000001907349 0
vt 0.94999998807907 0.56650000810623 0
vt 0.80000001192093 0.48000001907349 0
vt 0.85000002384186 0.56650000810623 0
vt 0.89999997615814 0.65299999713898 0
vt 0.79999995231628 0.65299999713898 0
vt 0.75 0.56650000810623 0
vt 0.69999998807907 0.65299999713898 0
vt 0.64999997615814 0.56650000810623 0
vt 0.70000004768372 0.48000001907349 0
vt 0.60000002384186 0.48000001907349 0
vt 0.64999997615814 0.3934999704361 0
vt 0.54999995231628 0.3934999704361 0
vt 0.30000001192093 0.65299999713898 0
vt 0.40000000596046 0.65299999713898 0
vt 0.34999999403954 0.56650000810623 0
vt 0.5 0.65299999713898 0
vt 0.44999998807907 0.56650000810623 0
vt 0.39999997615814 0.48000001907349 0
vt 0.30000001192093 0.307000041008 0
vt 0.25 0.3934999704361 0
vt 0.34999999403954 0.3934999704361 0
vt 0.20000000298023 0.48000001907349 0
vt 0.29999998211861 0.48000001907349 0
vt 0.10000000149012 0.65400004386902 0
vt 0.1499999910593 0.74050003290176 0
vt 0.20000000298023 0.653500020504 0
vt 0.25 0.74000000953674 0
vt 0.29999995231628 0.82700002193451 0
vt 0.39999997615814 0.82700002193451 0
vt 0.34999999403954 0.74000000953674 0
vt 0.44999998807907 0.74000000953674 0
vt 0.44999998807907 0.91350001096725 0
vt 0.5 0.82700002193451 0
vt 0.5 1 0
vt 0.55000001192093 0.91350001096725 0
vt 0.60000002384186 0.82700002193451 0
vt 0.60000002384186 0.65299999713898 0
vt 0.55000001192093 0.56650000810623 0
vt 0.5 0.48000001907349 0
vt 0.44999998807907 0.3934999704361 0
vt 0.40000000596046 0.307000041008 0
vt 0.34999999403954 0.91350001096725 0
vt 0.40000000596046 1 0
# 64 texture coordinates

o Sphere.1
usemtl Mat.1
f 10/1/1 13/2/1 15/3/1
f 13/2/3 9/5/3 14/6/3
f 14/6/4 15/3/4 13/2/4
f 15/3/5 14/6/5 1/7/5
f 9/5/6 16/8/6 14/6/6
f 16/8/8 3/9/8 17/10/8
f 17/10/9 14/6/9 16/8/9
f 14/6/10 17/10/10 1/7/10
f 9/11/11 18/12/11 16/13/11
f 18/12/13 4/14/13 19/15/13
f 19/15/14 16/13/14 18/12/14
f 16/13/15 19/15/15 3/16/15
f 9/11/16 20/17/16 18/12/16
f 20/17/18 5/18/18 21/19/18
f 21/19/19 18/12/19 20/17/19
f 18/12/20 21/19/20 4/14/20
f 9/20/21 13/21/21 20/22/21
f 13/21/23 10/23/23 22/24/23
f 22/24/24 20/22/24 13/21/24
f 20/22/25 22/24/25 5/25/25
f 5/25/26 22/24/26 24/26/26
f 22/24/28 10/23/28 23/27/28
f 23/27/29 24/26/29 22/24/29
f 24/26/30 23/27/30 7/28/30
f 7/28/31 23/27/31 26/29/31
f 23/27/33 10/23/33 25/30/33
f 25/30/34 26/29/34 23/27/34
f 26/29/35 25/30/35 8/31/35
f 10/1/36 15/3/36 25/32/36
f 15/3/38 1/7/38 27/33/38
f 27/33/39 25/32/39 15/3/39
f 25/32/40 27/33/40 8/31/40
f 12/34/41 28/35/41 30/36/41
f 28/35/43 11/37/43 29/38/43
f 29/38/44 30/36/44 28/35/44
f 30/36/45 29/38/45 2/39/45
f 3/40/46 31/41/46 32/42/46
f 31/41/48 12/43/48 30/44/48
f 30/44/49 32/42/49 31/41/49
f 32/42/50 30/44/50 2/39/50
f 3/45/51 19/46/51 31/47/51
f 19/46/53 4/14/53 33/48/53
f 33/48/54 31/47/54 19/46/54
f 31/47/55 33/48/55 12/34/55
f 4/14/56 34/49/56 33/48/56
f 34/49/58 6/50/58 35/51/58
f 35/51/59 33/48/59 34/49/59
f 33/48/60 35/51/60 12/34/60
f 6/50/61 36/52/61 35/51/61
f 36/52/63 11/37/63 28/35/63
f 28/35/64 35/51/64 36/52/64
f 35/51/65 28/35/65 12/34/65
f 6/50/66 37/53/66 36/54/66
f 37/53/68 7/55/68 38/56/68
f 38/56/69 36/54/69 37/53/69
f 36/54/70 38/56/70 11/57/70
f 7/28/71 26/29/71 38/58/71
f 26/29/73 8/31/73 39/59/73
f 39/59/74 38/58/74 26/29/74
f 38/58/75 39/59/75 11/37/75
f 8/31/76 40/60/76 39/59/76
f 40/60/78 2/39/78 29/38/78
f 29/38/79 39/59/79 40/60/79
f 39/59/80 29/38/80 11/37/80
f 2/39/81 40/60/81 41/61/81
f 40/60/83 8/31/83 27/33/83
f 27/33/84 41/61/84 40/60/84
f 41/61/85 27/33/85 1/7/85
f 3/40/86 32/42/86 17/62/86
f 32/42/87 2/39/87 41/61/87
f 41/61/88 17/62/88 32/42/88
f 17/62/89 41/61/89 1/7/89
f 5/18/90 42/63/90 21/19/90
f 42/63/91 6/50/91 34/49/91
f 34/49/92 21/19/92 42/63/92
f 21/19/93 34/49/93 4/14/93
f 5/18/94 24/64/94 42/63/94
f 24/64/95 7/55/95 37/53/95
f 37/53/96 42/63/96 24/64/96
f 42/63/97 37/53/97 6/50/97

v 839.4991455078125 2999.59521484375 282.0311279296875
v 807.9295654296875 2634.4375 315.37026977539062
v 1160.47607421875 2793.63330078125 199.94189453125
v 1123.2998046875 2829.346923828125 -194.9095458984375
v 839.16986083984375 3008.281494140625 -326.61111450195312
v 748.5775146484375 2728.00927734375 -255.907470703125
v 387.50375366210938 2810.87890625 -175.82101440429688
v 163.00936889648438 2918.686279296875 175.53620910644531
v 1002.839111328125 3144.71728515625 0
v 593.0457763671875 3120.61474609375 -83.37445831298828
v 537.43280029296875 2591.862548828125 -18.79796600341797
v 1000.9005126953125 2583.9638671875 -5.9771876335144
v 777.270263671875 3073.990234375 -31.39770317077637
v 998.15277099609375 3100.0009765625 174.35789489746094
v 706.5579833984375 3045.31884765625 138.13658142089844
v 1248.8397216796875 3042.409423828125 96.41935729980469
v 957.60211181640625 2931.12744140625 210.40301513671875
v 1107.864501953125 3014.717041015625 -114.56496429443359
v 1202.0751953125 2815.756591796875 -39.44897842407227
v 851.188720703125 3063.897216796875 -186.11311340332031
v 961.27191162109375 2927.316162109375 -368.74337768554688
v 651.8349609375 3110.97705078125 -180.676513671875
v 518.9874267578125 3009.747802734375 -152.83055114746094
v 588.12567138671875 2977.293212890625 -293.84414672851562
v 377.530029296875 3025.455810546875 45.7228889465332
v 298.29312133789062 2840.39794921875 -19.03891181945801
v 622.5595703125 2943.911865234375 299.93496704101562
v 766.87286376953125 2636.0791015625 105.14238739013672
v 462.74819946289062 2614.48974609375 168.56108093261719
v 946.32037353515625 2594.607421875 176.44239807128906
v 1053.9351806640625 2721.4580078125 132.25236511230469
v 1016.11700439453125 2691.547119140625 294.17172241210938
v 1146.40576171875 2706.606689453125 -99.35487365722656
v 999.5887451171875 2779.8369140625 -212.68679809570312
v 929.90771484375 2635.7177734375 -175.4385986328125
v 628.19879150390625 2628.818359375 -173.24540710449219
v 622.5595703125 2714.781982421875 -299.93496704101562
v 507.99459838867188 2643.97705078125 -114.56496429443359
v 194.32705688476562 2719.098876953125 97.55397033691406
v 592.75933837890625 2756.065673828125 215.34269714355469
v 835.8740234375 2788.796142578125 412.74713134765625
v 766.437255859375 2776.889892578125 -325.9478759765625
# 42 vertices

vn -0.17566309869289 -0.95600348711014 -0.23494648933411
vn 0.32002145051956 -0.91974490880966 -0.22727884352207
vn 0.19378262758255 -0.97740119695663 -0.08447044342756
vn 0.21880851686001 -0.8532966375351 -0.47329443693161
vn -0.28881934285164 -0.92547464370728 -0.24511256814003
vn 0 -1759.419921875 0
vn -0.24802646040916 -0.29577824473381 -0.9224956035614
vn -0.32037788629532 -0.12353651970625 -0.93920010328293
vn -0.53897285461426 -0.05005098506808 -0.84083479642868
vn -0.48444253206253 -0.76513838768005 0.42412102222443
vn 0 -1759.443359375 0
vn -0.87146759033203 -0.25432687997818 0.419359177351
vn -0.80881124734879 -0.17049978673458 0.56280916929245
vn -0.94999796152115 0.27948600053787 -0.13925313949585
vn -0.30604812502861 -0.75654309988022 0.5779076218605
vn 0 -1759.466796875 0
vn -0.42400377988815 -0.82908821105957 0.36446341872215
vn -0.28840842843056 -0.84202361106873 0.45586937665939
vn -0.77628570795059 -0.303995013237 0.55223870277405
vn 0.26949760317802 -0.94400280714035 0.19034099578857
vn 0 -1759.490234375 0
vn -0.23323312401772 -0.97139286994934 -0.044702000916
vn -0.23079769313335 -0.97187232971191 -0.04686724767089
vn -0.20332580804825 -0.9043031334877 0.37535917758942
vn 0.17680716514587 -0.68365746736526 0.70806187391281
vn 0 -1759.513671875 0
vn 0.60240000486374 -0.67212378978729 0.43053901195526
vn 0.59959614276886 -0.66397279500961 0.44679370522499
vn 0.71076267957687 -0.52415925264359 0.46911972761154
vn 0.69761556386948 -0.51840758323669 0.49455657601357
vn 0 -1759.537109375 0
vn 0.57515603303909 -0.67433136701584 0.4631119966507
vn 0.69426608085632 -0.48375499248505 0.53289377689362
vn 0.61658489704132 -0.4818819463253 0.62258553504944
vn 0.16475950181484 -0.90505802631378 -0.39207693934441
vn 0 -1759.560546875 0
vn 0.18696312606335 -0.87314522266388 -0.4501801431179
vn 0.18008364737034 -0.87284141778946 -0.45356124639511
vn 0.16867519915104 -0.87963193655014 -0.44474306702614
vn 0.22161059081554 0.97508978843689 0.00941299647093
vn 0 -1759.583984375 0
vn -0.10298139601946 0.98179239034653 -0.15962044894695
vn 0.02950953319669 0.89452940225601 0.44603395462036
vn 0.0437524728477 0.97105515003204 -0.23481434583664
vn -0.56899452209473 0.8221223950386 0.01897284761071
vn 0 -1759.607421875 0
vn -0.77881044149399 0.56798994541168 -0.26616117358208
vn -0.771808385849 0.63268756866455 -0.0633904337883
vn -0.27556693553925 0.81583875417709 -0.5083994269371
vn -0.55246198177338 0.83332175016403 -0.01899033784866
vn 0 -1759.630859375 0
vn -0.86850798130035 0.19220043718815 0.45689481496811
vn -0.75130391120911 0.56779986619949 -0.33637154102325
vn -0.72295594215393 0.60826116800308 -0.32764792442322
vn -0.32785049080849 0.5411491394043 0.77438467741013
vn 0 -1759.654296875 0
vn -0.22808018326759 0.34553778171539 0.91026538610458
vn -0.41919136047363 0.41180151700974 0.80913418531418
vn -0.41226482391357 0.8086479306221 0.41967386007309
vn -0.00924643967301 0.64676916599274 0.76262980699539
vn 0 -1759.677734375 0
vn -0.23638208210468 0.96724510192871 0.09252255409956
vn -0.02296566776931 0.9996292591095 -0.01463177613914
vn 0.28910574316978 0.94265806674957 0.16677433252335
vn -0.27446672320366 0.78999012708664 0.54825508594513
vn 0 -1759.701171875 0
vn 0.55063372850418 0.60759484767914 0.57239061594009
vn 0.35016256570816 0.78226792812347 0.51521170139313
vn 0.29771658778191 0.8739807009697 0.38408663868904
vn 0.72130304574966 0.6279684305191 0.29219451546669
vn 0 -1759.724609375 0
vn 0.79527467489243 -0.1082753315568 0.59650194644928
vn 0.58269864320755 0.24529203772545 0.77478647232056
vn 0.4243528842926 0.84373104572296 0.32869818806648
vn 0.22857765853405 0.38519811630249 -0.89407759904861
vn 0 -1759.748046875 0
vn 0.3935669362545 -0.05826121941209 -0.91744792461395
vn 0.27768403291702 0.06178141385317 -0.9586837887764
vn 0.35624516010284 0.93393570184708 0.02921488136053
vn 0.55524885654449 0.36951720714569 -0.74508768320084
vn 0 -1759.771484375 0
vn 0.22369666397572 0.37048250436783 -0.90150010585785
vn 0.58929342031479 0.25216594338417 -0.76755821704864
vn 0.06524055451155 -0.52668702602386 -0.84755212068558
vn -0.3023287653923 -0.37956318259239 -0.87437349557877
vn -0.23229163885117 0.54869091510773 -0.80310571193695
vn -0.64343923330307 -0.38789930939674 -0.65993934869766
vn -0.63353401422501 -0.39984911680222 -0.66238605976105
vn 0.27499768137932 -0.08369383960962 0.95779520273209
vn -0.25720912218094 0.82200568914413 0.50808465480804
vn -0.34247907996178 0.63942140340805 0.68836641311646
vn -0.35293817520142 0.6352242231369 0.68696790933609
vn 0.13409458100796 -0.03931135311723 0.99018847942352
vn 0.48007792234421 0.04264292120934 0.87618881464005
vn 0 -300 1
vn 0.177714407444 0.00047820006148 0.98408204317093
vn -0.99998861551285 -0.00088968034834 1.00000071525574
vn -0.2630460858345 0.82135611772537 0.50614297389984
vn -0.9999925494194 -0.00032698299037 1
# 99 normals

# 0 texture coordinate

o Sphere
usemtl Mat.1
f 52/1/98 55/2/98 57/3/98
f 55/2/99 51/5/99 56/6/99
f 56/6/100 57/3/100 55/2/100
f 57/3/101 56/6/101 43/7/101
f 51/5/102 58/8/102 56/6/102
f 58/8/104 45/9/104 59/10/104
f 59/10/105 56/6/105 58/8/105
f 56/6/106 59/10/106 43/7/106
f 51/11/107 60/12/107 58/13/107
f 60/12/109 46/14/109 61/15/109
f 61/15/110 58/13/110 60/12/110
f 58/13/111 61/15/111 45/16/111
f 51/11/112 62/17/112 60/12/112
f 62/17/114 47/18/114 63/19/114
f 63/19/115 60/12/115 62/17/115
f 60/12/116 63/19/116 46/14/116
f 51/20/117 55/21/117 62/22/117
f 55/21/119 52/23/119 64/24/119
f 64/24/120 62/22/120 55/21/120
f 62/22/121 64/24/121 47/25/121
f 47/25/122 64/24/122 66/26/122
f 64/24/124 52/23/124 65/27/124
f 65/27/125 66/26/125 64/24/125
f 66/26/126 65/27/126 49/28/126
f 49/28/127 65/27/127 68/29/127
f 65/27/129 52/23/129 67/30/129
f 67/30/130 68/29/130 65/27/130
f 68/29/131 67/30/131 50/31/131
f 52/1/132 57/3/132 67/32/132
f 57/3/134 43/7/134 69/33/134
f 69/33/135 67/32/135 57/3/135
f 67/32/136 69/33/136 50/31/136
f 54/34/137 70/35/137 72/36/137
f 70/35/139 53/37/139 71/38/139
f 71/38/140 72/36/140 70/35/140
f 72/36/141 71/38/141 44/39/141
f 45/40/142 73/41/142 74/42/142
f 73/41/144 54/43/144 72/44/144
f 72/44/145 74/42/145 73/41/145
f 74/42/146 72/44/146 44/39/146
f 45/45/147 61/46/147 73/47/147
f 61/46/149 46/14/149 75/48/149
f 75/48/150 73/47/150 61/46/150
f 73/47/151 75/48/151 54/34/151
f 46/14/152 76/49/152 75/48/152
f 76/49/154 48/50/154 77/51/154
f 77/51/155 75/48/155 76/49/155
f 75/48/156 77/51/156 54/34/156
f 48/50/157 78/52/157 77/51/157
f 78/52/159 53/37/159 70/35/159
f 70/35/160 77/51/160 78/52/160
f 77/51/161 70/35/161 54/34/161
f 48/50/162 79/53/162 78/54/162
f 79/53/164 49/55/164 80/56/164
f 80/56/165 78/54/165 79/53/165
f 78/54/166 80/56/166 53/57/166
f 49/28/167 68/29/167 80/58/167
f 68/29/169 50/31/169 81/59/169
f 81/59/170 80/58/170 68/29/170
f 80/58/171 81/59/171 53/37/171
f 50/31/172 82/60/172 81/59/172
f 82/60/174 44/39/174 71/38/174
f 71/38/175 81/59/175 82/60/175
f 81/59/176 71/38/176 53/37/176
f 44/39/177 82/60/177 83/61/177
f 82/60/179 50/31/179 69/33/179
f 69/33/180 83/61/180 82/60/180
f 83/61/181 69/33/181 43/7/181
f 45/40/182 74/42/182 59/62/182
f 74/42/183 44/39/183 83/61/183
f 83/61/184 59/62/184 74/42/184
f 59/62/185 83/61/185 43/7/185
f 47/18/186 84/63/186 63/19/186
f 84/63/187 48/50/187 76/49/187
f 76/49/188 63/19/188 84/63/188
f 63/19/189 76/49/189 46/14/189
f 47/18/190 66/64/190 84/63/190
f 66/64/191 49/55/191 79/53/191
f 79/53/193 84/63/193 66/64/193
f 84/63/195 79/53/195 48/50/195

